<svg width="16" height="16" viewBox="0 0 16 16" fill="none" xmlns="http://www.w3.org/2000/svg">
    <g clip-path="url(#hru1n2ujsa)">
        <path fill-rule="evenodd" clip-rule="evenodd" d="M8 15.333A7.333 7.333 0 1 0 8 .667a7.333 7.333 0 0 0 0 14.666zm-1.573-4.96c.16.147.36.227.56.227h.026c.2 0 .4-.067.56-.227l4.294-4.28a.813.813 0 0 0 0-1.133.813.813 0 0 0-1.134 0L7 8.68 5.293 6.987a.789.789 0 0 0-1.133 0 .789.789 0 0 0 0 1.133l2.267 2.253z" fill="#117CE9"/>
    </g>
    <defs>
        <clipPath id="hru1n2ujsa">
            <path fill="#fff" d="M0 0h16v16H0z"/>
        </clipPath>
    </defs>
</svg>
